<?xml version="1.0" standalone="no"?>
<!DOCTYPE svg PUBLIC "-//W3C//DTD SVG 20010904//EN"
 "http://www.w3.org/TR/2001/REC-SVG-20010904/DTD/svg10.dtd">
<svg version="1.0" xmlns="http://www.w3.org/2000/svg"
 width="1440.000000pt" height="1440.000000pt" viewBox="0 0 1440.000000 1440.000000"
 preserveAspectRatio="xMidYMid meet">
<metadata>
Created by potrace 1.16, written by Peter Selinger 2001-2019
</metadata>
<g transform="translate(0.000000,1440.000000) scale(0.100000,-0.100000)"
fill="#000000" stroke="none">
<path d="M5631 7714 c-118 -22 -199 -82 -243 -183 -16 -37 -19 -62 -16 -126 6
-111 43 -190 137 -287 77 -81 88 -81 101 -9 7 37 4 46 -21 78 -38 47 -40 105
-4 129 33 22 58 14 69 -21 14 -41 13 -40 41 -25 14 7 25 22 25 31 0 20 9 23
115 39 39 6 80 14 93 17 18 4 22 1 22 -16 0 -28 28 -71 46 -71 21 0 33 40 25
85 -8 48 0 47 -170 11 -74 -16 -128 -23 -133 -18 -5 5 -12 50 -15 99 -6 90 -6
91 21 108 20 13 55 19 126 23 l100 5 -6 26 c-12 51 -37 92 -65 106 -34 18
-145 18 -248 -1z"/>
<path d="M7730 7175 c0 -4 27 -34 60 -68 33 -34 63 -70 66 -79 5 -16 40 -34
57 -30 4 1 7 -3 6 -10 -4 -26 13 -49 32 -43 13 5 19 1 19 -10 0 -26 68 -98 83
-88 6 3 7 1 3 -6 -9 -15 43 -67 63 -63 8 2 10 -1 6 -8 -9 -14 94 -122 107
-114 5 3 7 2 6 -3 -2 -5 9 -23 24 -41 18 -22 33 -30 48 -27 17 3 19 1 11 -9
-15 -17 7 -36 40 -36 13 0 35 0 49 0 87 1 110 -1 110 -10 0 -5 -9 -10 -20 -10
-11 0 -20 -4 -20 -10 0 -5 9 -10 20 -10 11 0 20 4 20 9 0 5 12 11 26 14 l26 5
-6 -57 c-4 -31 -11 -105 -16 -165 -5 -60 -13 -113 -17 -117 -4 -4 -107 -4
-227 2 -211 9 -221 10 -252 34 -40 30 -46 31 -70 4 -17 -19 -26 -20 -129 -14
-60 3 -129 8 -152 11 l-43 5 0 46 0 45 -357 -8 c-520 -13 -495 -15 -665 52
-79 31 -158 63 -176 71 -18 8 -72 29 -120 48 -143 55 -195 75 -227 90 -16 7
-49 21 -72 30 -32 13 -49 29 -78 76 -65 106 -75 114 -193 153 -162 52 -221 68
-242 61 -28 -9 -104 -97 -131 -152 -20 -40 -24 -63 -23 -142 0 -83 -1 -90 -12
-65 -7 16 -25 57 -40 92 -19 45 -43 78 -83 115 -78 72 -135 89 -293 88 -105
-1 -126 -4 -160 -23 -51 -29 -88 -91 -88 -146 0 -24 -5 -42 -11 -42 -6 0 -8 7
-5 16 3 9 -1 58 -10 110 -15 79 -19 92 -33 85 -9 -5 -34 -12 -56 -16 -22 -4
-35 -9 -29 -12 6 -2 29 0 52 5 38 9 40 8 45 -17 3 -14 1 -27 -4 -29 -5 -2 -9
-26 -9 -53 0 -27 -4 -49 -10 -49 -5 0 -10 7 -10 16 0 9 -14 29 -31 45 -35 33
-41 35 -33 14 5 -11 -1 -15 -25 -15 -17 0 -31 5 -31 10 0 14 -27 12 -33 -2 -4
-9 -8 -10 -14 -2 -4 6 -16 13 -25 17 -12 4 -15 2 -11 -9 5 -14 -3 -15 -56 -12
-42 2 -61 -1 -61 -9 0 -6 6 -13 13 -16 7 -2 8 -8 3 -13 -5 -5 -11 -4 -13 4 -5
14 -33 16 -33 2 0 -5 -16 -10 -35 -10 -48 0 -44 17 5 25 22 4 42 11 46 16 7
12 7 12 -54 -6 -29 -9 -50 -20 -47 -25 4 -6 1 -10 -5 -10 -6 0 -8 -4 -5 -10 3
-5 0 -10 -9 -10 -8 0 -22 -3 -32 -7 -14 -5 -16 -3 -11 11 6 15 3 17 -26 11
-37 -8 -47 -16 -29 -22 7 -3 19 -11 26 -19 8 -8 31 -14 50 -14 33 0 36 -2 36
-30 l0 -30 -204 0 c-112 0 -213 -3 -223 -7 -16 -6 -17 -5 -3 12 14 17 13 17
-10 10 -27 -8 -60 -38 -60 -55 0 -9 -16 -12 -97 -15 -18 0 -34 -3 -37 -6 -11
-11 -10 -93 2 -97 8 -2 12 -28 12 -73 0 -62 -2 -69 -20 -69 -11 0 -20 -4 -20
-10 0 -6 -43 -10 -110 -10 -91 0 -110 3 -110 15 0 8 -4 15 -10 15 -5 0 -10 -7
-10 -15 0 -11 -11 -15 -38 -15 -26 0 -42 -6 -52 -20 -15 -21 -50 -28 -50 -10
0 6 -9 10 -20 10 -11 0 -20 -4 -20 -10 0 -5 -13 -10 -30 -10 -23 0 -30 -4 -30
-20 0 -13 -7 -20 -20 -20 -11 0 -20 5 -20 10 0 6 5 10 10 10 6 0 10 5 10 10 0
6 -37 10 -90 10 -53 0 -90 -4 -90 -10 0 -5 9 -10 20 -10 11 0 20 -4 20 -10 0
-6 -33 -10 -80 -10 -47 0 -80 4 -80 10 0 6 -12 10 -27 11 -16 1 -39 4 -53 9
-24 7 -23 7 12 15 28 5 41 3 53 -9 18 -18 55 -22 55 -6 0 6 14 10 30 10 21 0
30 5 30 16 0 19 27 47 34 36 3 -5 27 -10 53 -11 26 -1 50 -6 51 -11 2 -6 13
-10 24 -10 11 0 18 5 15 13 -2 6 -10 11 -16 9 -7 -1 -9 2 -6 8 4 6 13 9 20 6
17 -6 43 23 29 32 -5 4 -10 34 -10 67 -1 33 0 51 3 40 2 -11 7 -27 10 -35 7
-14 8 -24 12 -62 0 -10 7 -18 15 -18 14 0 26 41 26 88 0 35 8 24 13 -18 6 -44
16 -70 29 -70 5 0 7 -4 4 -8 -3 -5 15 -10 39 -10 33 -2 50 4 72 22 27 24 28
27 28 122 0 82 2 97 17 99 11 2 15 -4 14 -19 -2 -13 -6 -28 -10 -34 -9 -15 7
-15 21 -1 6 6 9 18 6 25 -3 8 -1 14 5 14 10 0 25 -60 17 -68 -3 -3 -5 0 -5 6
0 9 -6 9 -25 0 -14 -6 -25 -15 -25 -20 0 -12 14 -10 28 4 9 9 12 7 12 -10 0
-25 -3 -26 -31 -12 -13 7 -19 7 -19 0 0 -5 7 -10 15 -10 8 0 15 -4 15 -10 0
-5 -5 -10 -11 -10 -7 0 -9 -9 -5 -24 4 -15 1 -26 -7 -29 -7 -3 -2 -9 13 -15
23 -9 25 -7 28 22 5 61 13 96 22 91 8 -5 7 -24 -6 -79 -8 -35 3 -43 68 -45 27
0 54 -3 59 -6 5 -4 9 -1 9 5 0 8 9 10 25 6 23 -6 25 -4 27 31 0 21 0 76 -2
122 -2 81 -2 83 19 76 13 -4 21 -2 21 5 0 6 14 10 33 9 17 -1 48 5 67 14 19 9
25 14 13 11 -12 -2 -32 -7 -45 -11 -13 -3 -72 -5 -133 -4 -60 0 -125 -4 -143
-10 -18 -6 -83 -12 -145 -12 l-112 -2 -6 -50 c-3 -27 -7 -39 -7 -26 -2 20 -6
23 -30 18 -24 -5 -31 -1 -46 23 -12 22 -23 29 -39 26 -12 -3 -46 -5 -74 -5
l-53 -1 1 -57 c0 -32 4 -81 8 -109 l7 -50 -29 -2 c-27 -2 -29 -1 -16 15 8 10
19 21 24 26 6 4 6 10 -2 15 -6 4 -13 23 -15 41 -2 19 -9 36 -16 39 -9 3 -11
-17 -8 -86 4 -85 3 -90 -17 -96 -28 -7 -28 -5 -17 33 5 18 6 70 3 116 l-6 84
29 4 c26 4 26 4 -3 3 -18 -1 -34 2 -36 7 -1 5 -35 6 -79 2 l-76 -7 -7 -61 c-4
-41 -3 -63 4 -65 6 -2 11 -21 11 -42 0 -21 5 -42 10 -45 6 -3 10 -12 10 -18 0
-7 -4 -6 -10 3 -6 9 -10 10 -10 3 0 -6 -15 -17 -34 -24 -19 -7 -37 -20 -39
-29 -3 -13 -17 -17 -66 -17 -33 0 -61 4 -61 9 0 5 16 6 36 2 27 -5 35 -4 30 5
-4 6 -1 11 9 11 29 0 45 61 40 147 -3 43 -3 72 1 66 3 -7 19 -13 35 -13 24 0
29 4 28 23 0 21 -1 21 -9 2 -5 -11 -9 -14 -9 -7 -1 6 -11 13 -23 13 -21 1 -21
2 -3 6 75 18 -48 32 -153 17 -40 -6 -42 -8 -42 -42 0 -37 -12 -38 -15 0 -1 20
-8 22 -86 25 -46 2 -99 1 -118 -2 l-34 -6 6 -95 c5 -64 3 -93 -4 -88 -6 3 -9
16 -8 27 0 12 1 39 0 60 -1 34 -3 37 -30 37 -16 0 -31 6 -35 15 -4 11 2 15 22
15 21 0 24 2 12 10 -8 5 -40 9 -70 9 -49 -1 -51 -2 -22 -9 49 -11 51 -20 4
-20 -23 0 -42 -4 -42 -10 0 -6 -33 -10 -80 -10 l-80 0 0 -30 0 -30 -81 0 -80
0 3 27 c3 26 0 28 -42 35 -51 8 -103 1 -94 -13 3 -5 14 -9 25 -9 10 0 19 -4
19 -10 0 -5 -16 -10 -35 -10 -19 0 -35 -4 -35 -10 0 -5 -7 -10 -16 -10 -9 0
-25 -10 -35 -22 -11 -11 -22 -18 -26 -15 -3 4 4 16 17 27 28 24 23 32 -24 33
-43 1 -163 -53 -144 -65 9 -5 5 -8 -12 -9 -14 -1 -28 -1 -32 0 -4 0 -15 -10
-24 -24 -9 -14 -19 -23 -23 -21 -3 2 -4 -25 -3 -60 3 -41 0 -64 -7 -64 -6 0
-11 -4 -11 -10 0 -5 23 -10 50 -10 28 0 50 5 50 10 0 6 18 10 40 10 33 0 40
-3 40 -20 0 -11 5 -20 10 -20 6 0 10 -13 10 -30 0 -16 -4 -30 -10 -30 -5 0
-10 -9 -10 -20 0 -11 5 -20 10 -20 6 0 10 9 10 20 0 11 5 20 10 20 6 0 10 -27
10 -60 l0 -60 60 0 60 0 0 -80 0 -80 -40 0 c-37 0 -40 -2 -41 -27 0 -16 -3
-22 -6 -15 -2 6 -11 12 -19 12 -8 0 -14 7 -14 15 0 8 5 15 10 15 6 0 10 9 10
20 0 11 -4 20 -10 20 -5 0 -10 12 -10 26 0 21 4 24 20 19 17 -5 20 -2 20 24 0
17 -4 31 -10 31 -5 0 -10 -7 -10 -15 0 -8 -4 -15 -9 -15 -15 0 -33 29 -25 41
4 7 2 10 -7 7 -8 -3 -13 -11 -11 -19 13 -52 21 -118 28 -202 7 -94 18 -116 27
-52 3 21 4 15 6 -18 0 -30 -3 -46 -9 -42 -12 7 -13 -78 -1 -177 10 -95 -6
-152 -57 -199 -38 -36 -92 -59 -141 -59 -23 0 -23 -1 -16 -77 20 -217 74 -323
230 -447 60 -48 127 -76 385 -161 389 -128 416 -135 506 -135 l81 0 12 -52
c20 -89 78 -219 137 -306 174 -257 431 -402 739 -418 333 -18 643 140 831 422
64 97 95 164 125 273 l22 81 125 0 c68 0 1256 3 2639 6 1383 4 2651 3 2817 -1
l302 -7 39 -115 c53 -158 119 -266 230 -378 126 -127 201 -175 365 -233 397
-139 853 15 1089 368 60 91 115 215 134 307 l11 53 96 1 c52 1 298 1 545 -1
430 -2 453 -1 508 18 71 25 130 71 161 125 13 23 43 101 65 173 37 119 41 141
41 238 0 103 -1 107 -20 101 -18 -6 -20 -2 -20 44 0 59 6 64 19 19 l9 -33 1
32 c1 22 -5 36 -18 43 -13 6 -17 17 -14 30 3 11 0 20 -6 20 -6 0 -11 -13 -11
-30 0 -16 -4 -30 -10 -30 -5 0 -10 14 -10 31 0 26 -2 30 -15 19 -8 -6 -19 -9
-24 -5 -6 3 -8 0 -5 -8 3 -9 -3 -16 -15 -20 -12 -3 -21 -12 -21 -21 0 -9 -4
-16 -10 -16 -5 0 -10 3 -10 8 0 4 -27 8 -60 8 -33 0 -60 -3 -60 -8 0 -4 18 -8
40 -8 22 0 40 -4 40 -10 0 -6 -26 -10 -59 -10 -32 0 -73 -3 -90 -6 -24 -5 -31
-3 -31 10 0 19 -56 23 -63 4 -4 -10 -8 -10 -14 -1 -4 6 -25 14 -46 18 -39 8
-51 25 -18 25 11 0 23 5 26 10 3 6 -4 10 -15 10 -13 0 -24 8 -27 20 -6 23 -23
27 -23 5 0 -11 -11 -15 -40 -15 -46 0 -49 5 -18 31 18 16 20 23 10 44 -14 30
-32 33 -32 4 0 -14 5 -19 14 -16 10 4 13 1 9 -9 -6 -16 -23 -19 -23 -4 0 6
-13 10 -30 10 -29 0 -30 1 -30 50 l0 50 -40 0 c-33 0 -40 3 -40 20 0 17 7 20
40 20 33 0 40 3 40 20 0 13 7 20 20 20 22 0 27 -16 8 -22 -10 -4 -9 -9 2 -20
14 -14 16 -11 18 28 1 41 0 44 -23 44 -19 0 -25 5 -25 21 0 21 -34 59 -52 59
-4 0 -8 -25 -8 -55 0 -30 -4 -55 -10 -55 -5 0 -10 24 -10 54 l0 54 -40 7 -40
7 0 59 c0 33 4 59 10 59 15 0 12 49 -4 66 -8 8 -31 14 -50 14 -29 0 -36 4 -36
20 0 11 5 20 10 20 6 0 10 -4 10 -10 0 -5 5 -10 10 -10 6 0 10 14 10 30 0 17
-4 30 -10 30 -5 0 -10 9 -10 20 0 11 -4 20 -10 20 -5 0 -10 18 -10 40 0 39 1
40 36 40 23 0 42 7 51 18 10 12 16 14 19 5 3 -7 16 -13 29 -13 27 0 78 -18
157 -54 63 -29 82 -33 53 -12 -16 11 -17 17 -7 29 10 12 7 17 -19 27 -17 8
-59 14 -93 16 -61 3 -80 6 -124 19 -18 6 -20 10 -10 16 8 6 -2 9 -29 9 -24 0
-43 -4 -43 -10 0 -18 -55 -11 -70 10 -8 11 -22 20 -32 20 -10 0 -18 5 -18 10
0 6 -9 10 -19 10 -11 0 -22 6 -24 13 -4 9 -8 8 -16 -3 -10 -13 -12 -13 -21 0
-9 13 -11 13 -19 0 -8 -12 -13 -11 -31 9 -11 14 -23 21 -28 16 -4 -4 -1 -10 6
-12 6 -3 12 -9 12 -14 0 -14 -37 -11 -44 4 -5 10 -7 10 -12 0 -14 -31 -84 -5
-84 31 0 9 -2 16 -5 16 -12 0 -55 -24 -55 -32 0 -15 -32 -8 -49 10 -18 20 -84
42 -125 42 -14 0 -26 5 -26 10 0 6 8 10 17 10 44 0 -4 12 -79 20 -46 4 -101
11 -121 15 -25 5 -37 4 -37 -4 0 -6 18 -11 43 -11 31 0 38 -3 27 -10 -8 -5
-32 -10 -52 -10 -31 0 -38 -4 -38 -20 0 -17 -7 -20 -40 -20 -38 0 -40 2 -40
30 0 30 14 41 23 18 2 -7 8 -9 13 -5 12 11 -18 28 -38 21 -10 -3 -18 -1 -18 5
0 6 10 12 23 12 38 3 -112 17 -238 23 -66 3 -112 3 -102 0 9 -3 17 -8 17 -10
0 -14 -32 -34 -54 -34 -14 0 -26 -4 -26 -10 0 -6 -33 -10 -80 -10 -47 0 -80 4
-80 10 0 6 -9 10 -20 10 -11 0 -20 5 -20 10 0 6 4 10 9 10 5 0 11 11 13 25 5
25 5 25 -66 23 -40 -1 -55 -3 -33 -5 29 -3 37 -9 37 -24 0 -15 -7 -19 -39 -19
-35 0 -39 3 -44 30 -6 30 -7 30 -74 29 -53 -1 -61 -3 -38 -9 30 -8 30 -8 -7
-9 -31 -1 -38 -5 -38 -21 0 -19 -7 -20 -160 -20 -153 0 -160 1 -160 20 0 11 5
20 10 20 6 0 10 5 10 10 0 6 -9 10 -20 10 -11 0 -20 -4 -20 -10 0 -5 -9 -10
-20 -10 -11 0 -20 -4 -20 -10 0 -5 -4 -10 -10 -10 -5 0 -10 9 -10 20 0 11 6
20 13 20 8 0 8 3 -2 9 -11 7 -9 10 10 14 13 2 3 5 -23 6 -53 1 -55 0 -32 -24
9 -9 13 -19 9 -23 -4 -4 -10 -1 -12 6 -9 23 -23 12 -23 -18 0 -30 -14 -40 -24
-17 -5 10 -7 10 -12 0 -3 -7 -19 -13 -35 -13 -16 0 -29 -4 -29 -10 0 -5 18
-10 40 -10 22 0 40 -4 40 -10 0 -6 -33 -10 -80 -10 -79 0 -80 0 -80 26 0 33
-21 54 -54 54 -19 0 -26 5 -26 20 0 22 -12 25 -41 10 -11 -6 -19 -7 -19 -1 0
12 -132 13 -162 2 -17 -8 -6 -10 50 -10 41 -1 72 -5 72 -11 0 -5 18 -10 40
-10 22 0 40 -4 40 -10 0 -5 -18 -10 -40 -10 -22 0 -40 5 -40 10 0 6 -27 10
-60 10 -53 0 -60 -2 -60 -20 0 -19 -7 -20 -90 -20 l-90 0 0 40 0 40 -122 2
c-68 2 -163 3 -213 4 -49 0 -101 5 -115 11 -14 5 -31 8 -37 6 -7 -3 -13 0 -13
6 0 6 4 11 8 11 4 0 9 11 10 24 1 19 -3 24 -18 23 -17 -1 -20 -9 -20 -44 l0
-43 -42 1 c-24 1 -33 4 -20 6 17 3 22 11 22 34 0 27 -2 29 -40 29 l-40 0 1
-50 c2 -41 5 -50 21 -50 10 0 18 5 18 10 0 6 9 10 20 10 11 0 20 -7 20 -15 0
-8 -9 -15 -20 -15 -17 0 -20 -7 -20 -40 0 -33 -3 -40 -20 -40 -12 0 -20 -7
-20 -16 0 -18 -17 -37 -45 -48 -13 -5 -15 -10 -7 -13 6 -3 12 -13 12 -24 0
-10 5 -19 10 -19 6 0 10 -9 10 -20 0 -11 5 -20 10 -20 6 0 10 -33 10 -80 0
-47 -4 -80 -10 -80 -6 0 -10 -33 -10 -80 0 -47 4 -80 10 -80 6 0 10 -33 10
-80 0 -47 -4 -80 -10 -80 -6 0 -10 -33 -10 -80 0 -47 4 -80 10 -80 6 0 10 -22
10 -50 0 -27 -4 -50 -10 -50 -5 0 -10 -5 -10 -11 0 -6 9 -8 20 -4 14 4 20 2
20 -8 0 -12 -13 -14 -67 -11 -38 3 -74 7 -80 9 -17 6 -18 205 -1 205 8 0 9 38
5 143 -3 79 -3 228 0 332 6 178 7 189 29 213 19 20 26 22 38 12 19 -15 36 -5
36 22 0 18 -2 19 -17 7 -15 -13 -15 -12 -1 16 21 42 30 105 15 105 -8 0 -8 3
1 9 11 7 11 9 -1 14 -8 3 -17 25 -21 49 -4 23 -14 54 -23 67 -8 13 -10 20 -4
17 13 -9 15 42 2 63 -11 18 -23 -1 -15 -26 5 -17 5 -17 -6 0 -7 10 -9 21 -6
24 9 9 -14 44 -25 38 -5 -4 -9 1 -9 9 0 9 5 16 10 16 6 0 10 5 10 10 0 6 -10
8 -24 4 -16 -4 -27 -1 -33 10 -4 8 -19 19 -33 25 -19 7 -20 10 -7 10 10 1 27
-4 38 -9 33 -18 21 5 -13 25 -18 10 -37 24 -43 31 -25 32 -169 143 -178 137
-6 -3 -7 -1 -4 4 8 13 -59 66 -73 58 -6 -3 -10 1 -10 9 0 25 -86 89 -110 81
-14 -5 -20 -2 -20 10 0 9 5 13 10 10 24 -15 7 4 -37 40 -27 22 -42 31 -34 22
8 -10 11 -20 8 -23 -10 -10 -39 5 -32 16 9 14 -4 50 -17 50 -6 0 -23 12 -37
28 -15 15 -38 34 -51 43 -20 13 -25 25 -26 58 0 38 1 40 16 26 10 -9 34 -15
61 -14 42 1 43 1 14 10 -16 5 -37 10 -45 12 -8 1 -20 5 -25 9 -13 8 -85 22
-107 20 -10 0 -20 3 -23 9 -9 13 -95 11 -95 -2 0 -8 -5 -8 -15 1 -8 7 -15 9
-15 5z m-3050 -513 c0 -10 -9 -24 -20 -32 -27 -20 -25 -29 6 -27 15 1 29 -4
31 -11 6 -14 -18 -12 -29 3 -4 6 -8 -9 -8 -32 0 -36 3 -43 20 -43 22 0 27 15
8 23 -10 4 -9 8 2 16 17 12 33 -12 45 -68 5 -25 4 -32 -5 -26 -8 5 -11 3 -9
-4 3 -7 9 -12 14 -11 18 3 24 -37 24 -182 1 -142 0 -148 -19 -148 -17 0 -20
-7 -20 -40 0 -22 5 -40 10 -40 6 0 10 -33 10 -80 0 -47 -4 -80 -10 -80 -6 0
-10 33 -10 80 0 47 -4 80 -10 80 -6 0 -10 73 -10 200 l0 200 -30 0 -30 0 0 70
c0 40 -4 70 -10 70 -18 0 -11 35 10 50 11 8 20 22 20 32 0 10 5 18 10 18 6 0
10 -8 10 -18z m799 -488 c75 -8 111 -43 111 -109 0 -40 -5 -51 -32 -77 l-33
-31 -229 7 c-255 8 -275 13 -303 72 -15 31 -16 39 -3 77 25 71 51 78 260 72
96 -3 199 -8 229 -11z m5381 -473 c0 -10 7 -22 16 -25 27 -10 252 -7 259 4 3
6 15 10 26 10 10 0 19 7 19 15 0 11 12 15 50 15 49 0 50 -1 50 -30 0 -27 3
-30 33 -30 37 -1 67 -20 67 -44 0 -17 -20 -22 -36 -7 -31 29 -359 61 -451 44
-29 -6 -53 -6 -53 -2 0 5 -22 9 -50 9 -49 0 -50 1 -50 30 l0 30 60 0 c52 0 60
-2 60 -19z m-9100 -121 c0 -19 7 -20 210 -20 133 0 210 -4 210 -10 0 -5 -4
-10 -10 -10 -5 0 -10 -4 -10 -10 0 -5 18 -10 40 -10 22 0 40 5 40 10 0 6 33
10 80 10 l80 0 0 -30 c0 -28 -2 -30 -40 -30 -22 0 -40 5 -40 10 0 6 -18 10
-40 10 -33 0 -40 -3 -40 -20 0 -18 -7 -20 -77 -20 -141 0 -480 24 -448 32 17
4 -9 5 -57 2 -84 -6 -262 6 -225 14 35 7 5 22 -34 16 -38 -6 -39 -6 -39 25 0
30 2 31 40 31 22 0 40 -4 40 -10 0 -6 33 -10 80 -10 47 0 80 -4 80 -10 0 -6
33 -10 80 -10 47 0 80 -4 80 -10 0 -6 60 -10 160 -10 100 0 160 4 160 10 0 6
-60 10 -160 10 -100 0 -160 4 -160 10 0 6 -33 10 -80 10 -73 0 -80 2 -80 20 0
18 7 20 80 20 73 0 80 -2 80 -20z m2720 -160 c0 -17 7 -20 40 -20 22 0 40 -4
40 -10 0 -5 18 -10 40 -10 38 0 40 2 40 30 l0 30 76 0 c52 0 80 -4 90 -14 19
-20 18 -26 -6 -26 -11 0 -20 -4 -20 -10 0 -6 -30 -10 -70 -10 -38 0 -70 -4
-70 -9 0 -5 -18 -9 -40 -9 -22 0 -40 3 -40 9 0 5 -48 9 -110 9 -67 0 -110 -4
-110 -10 0 -6 43 -10 108 -10 71 -1 117 -6 137 -15 l30 -14 -45 4 c-25 2 -147
7 -271 11 -125 3 -233 11 -240 16 -11 8 -10 9 4 4 9 -3 17 -1 17 4 0 6 18 10
40 10 38 0 40 2 40 30 l0 30 160 0 c153 0 160 -1 160 -20z m7440 -160 c0 -17
7 -20 40 -20 36 0 40 -2 40 -25 0 -14 -11 -37 -25 -51 -21 -21 -23 -27 -12
-45 11 -17 12 -18 16 -3 4 23 30 48 39 39 4 -4 1 -10 -5 -12 -7 -3 -13 -18
-13 -34 0 -26 4 -29 30 -29 21 0 30 -5 30 -16 0 -25 26 -44 62 -44 22 0 39 -7
48 -20 8 -11 21 -20 29 -20 18 0 40 -30 34 -47 -4 -9 -27 -13 -82 -12 -42 1
-62 4 -46 6 62 7 75 13 75 33 0 11 -4 20 -10 20 -5 0 -10 -4 -10 -10 0 -5 -4
-10 -10 -10 -5 0 -10 9 -10 20 0 13 -7 20 -20 20 -16 0 -20 -7 -20 -30 0 -16
-4 -30 -9 -30 -14 0 -23 37 -16 60 5 15 2 20 -13 20 -11 0 -22 -6 -25 -12 -3
-8 -9 -3 -15 12 -5 14 -18 34 -29 45 -10 12 -29 36 -42 54 -19 27 -21 35 -10
43 11 7 10 8 -5 6 -10 -2 -25 7 -35 22 -9 13 -11 21 -3 16 8 -5 12 0 12 15 0
16 -5 20 -20 16 -14 -3 -24 1 -31 15 -10 19 -9 20 15 14 15 -4 26 -2 26 4 0 5
5 10 10 10 6 0 10 -9 10 -20z m-1832 -52 c14 -14 16 -68 3 -68 -5 0 -11 -9
-14 -21 -3 -12 -10 -18 -15 -15 -6 3 -12 -1 -15 -8 -3 -8 -2 -16 3 -18 6 -2 5
-9 0 -18 -8 -13 -10 -12 -10 3 0 9 -4 17 -10 17 -5 0 -10 -4 -10 -10 0 -5 -13
-10 -30 -10 -16 0 -30 5 -30 10 0 6 -9 10 -20 10 -11 0 -20 -6 -20 -14 0 -10
14 -16 43 -19 23 -3 -39 -3 -138 -1 -159 4 -283 10 -582 30 -46 3 -83 10 -83
15 0 5 10 9 23 9 18 0 19 2 7 10 -10 6 -11 10 -2 10 6 0 12 5 12 10 0 6 -13
10 -30 10 -30 0 -41 -14 -17 -23 6 -3 -8 -3 -33 0 -34 3 -41 2 -30 -6 8 -6 25
-11 38 -11 12 0 22 -4 22 -8 0 -9 -184 -5 -228 4 -32 7 -22 30 11 26 15 -2 27
1 27 7 0 7 33 11 90 11 53 0 90 4 90 10 0 6 14 10 30 10 17 0 30 -4 30 -10 0
-6 60 -10 160 -10 100 0 160 4 160 10 0 6 18 10 40 10 22 0 40 -4 40 -10 0 -5
-18 -10 -40 -10 -22 0 -40 -4 -40 -10 0 -5 18 -10 40 -10 33 0 40 -3 40 -19 0
-15 10 -21 40 -26 44 -7 100 1 100 16 0 5 -13 9 -30 9 -16 0 -30 5 -30 10 0 6
14 10 30 10 17 0 30 -4 30 -10 0 -5 18 -10 40 -10 22 0 40 -4 40 -10 0 -5 -4
-10 -10 -10 -5 0 -10 -4 -10 -10 0 -5 22 -10 48 -10 36 0 51 5 62 20 15 21 70
28 70 10 0 -5 5 -10 10 -10 6 0 10 14 10 30 0 23 4 30 20 30 13 0 20 7 20 20
0 11 5 20 10 20 6 0 10 9 10 20 0 23 10 26 28 8z m-6675 -108 c245 -62 422
-235 488 -476 17 -64 20 -97 17 -193 -7 -185 -63 -314 -192 -443 -221 -221
-563 -257 -825 -88 -119 77 -210 190 -262 325 -26 67 -32 98 -37 191 -6 138
14 235 68 341 142 274 453 418 743 343z m7793 -8 c168 -53 323 -182 399 -332
131 -259 84 -560 -120 -766 -134 -135 -283 -197 -470 -197 -186 0 -328 58
-460 188 -138 135 -197 272 -199 460 -1 166 35 281 130 407 102 136 253 229
424 262 55 10 236 -3 296 -22z m1434 -132 c0 -17 7 -20 40 -20 36 0 52 -11 33
-23 -5 -2 -2 -2 5 0 8 1 29 3 48 3 27 0 34 4 34 20 0 18 7 20 80 20 l80 0 0
-34 c0 -19 6 -37 13 -39 6 -3 -19 -5 -58 -5 -68 1 -69 1 -20 8 38 5 42 7 18 8
-18 1 -33 7 -33 12 0 6 -13 10 -30 10 -20 0 -30 -5 -30 -15 0 -19 -53 -20
-265 -5 -82 6 -187 13 -232 16 -47 3 -83 10 -83 16 0 7 18 8 53 3 68 -11 327
-14 327 -4 0 4 -5 9 -12 11 -9 3 -8 9 2 21 20 22 30 21 30 -3z"/>
<path d="M3170 5053 c0 -5 9 -45 21 -89 l21 -82 77 -5 c42 -2 83 -8 93 -11 13
-6 24 7 53 59 52 92 51 96 -20 116 -61 18 -245 26 -245 12z"/>
<path d="M2975 4989 c-63 -33 -139 -94 -174 -138 l-32 -40 73 -37 c40 -20 75
-41 76 -46 2 -5 26 12 53 37 26 25 60 50 74 57 14 6 25 16 25 21 0 22 -42 167
-49 167 -3 0 -24 -9 -46 -21z"/>
<path d="M3566 4864 l-38 -76 29 -32 c16 -17 44 -50 62 -73 l32 -42 52 19 c29
10 64 21 80 25 15 3 27 10 27 16 0 44 -157 239 -192 239 -8 0 -31 -34 -52 -76z"/>
<path d="M2683 4643 c-16 -39 -33 -246 -22 -265 7 -12 63 -2 127 22 l47 18 3
63 c2 35 7 76 11 90 9 25 5 28 -65 68 -41 22 -76 41 -80 41 -3 0 -12 -17 -21
-37z"/>
<path d="M3790 4534 c-25 -7 -58 -17 -75 -22 -26 -7 -30 -13 -31 -48 -1 -21
-5 -64 -9 -95 -7 -55 -6 -56 22 -68 17 -7 56 -11 89 -9 58 3 58 3 66 38 16 77
19 114 12 166 -7 58 -6 58 -74 38z"/>
<path d="M10926 5052 c-3 -5 6 -45 20 -89 l24 -80 73 -6 c39 -3 81 -8 93 -12
18 -6 25 3 53 59 17 36 36 68 41 71 27 17 7 29 -80 51 -60 15 -216 19 -224 6z"/>
<path d="M10705 4975 c-33 -18 -87 -61 -120 -95 -69 -70 -71 -64 41 -122 l64
-33 15 22 c9 12 40 39 70 59 30 20 55 38 55 40 0 1 -4 13 -10 26 -5 13 -17 49
-25 81 -9 31 -19 57 -23 57 -4 0 -34 -16 -67 -35z"/>
<path d="M11346 4907 c-11 -17 -30 -52 -43 -76 l-23 -43 24 -19 c12 -10 38
-41 57 -68 19 -28 40 -51 48 -51 12 0 149 40 159 46 2 2 -9 26 -25 56 -29 55
-147 188 -167 188 -6 0 -20 -15 -30 -33z"/>
<path d="M10434 4628 c-13 -37 -18 -84 -19 -153 l0 -100 30 1 c17 1 55 9 86
18 l56 17 7 67 c3 37 9 79 12 93 5 24 0 30 -70 68 -41 22 -77 41 -80 41 -2 0
-12 -24 -22 -52z"/>
<path d="M11515 4526 l-70 -22 -7 -67 c-3 -36 -9 -79 -13 -95 -5 -24 -2 -30
20 -40 14 -7 54 -12 88 -12 l63 0 12 45 c13 48 16 155 6 193 -7 26 -10 26 -99
-2z"/>
<path d="M7984 6612 c-11 -9 -34 -35 -50 -57 -15 -22 -48 -64 -72 -93 -25 -29
-42 -55 -39 -58 12 -12 120 -35 126 -27 3 5 34 46 69 90 65 86 75 118 44 146
-24 22 -51 21 -78 -1z"/>
<path d="M1047 6123 c3 -7 1 -13 -5 -13 -15 0 -25 -55 -17 -100 l7 -40 56 0
c35 0 74 -8 100 -20 36 -16 42 -17 42 -3 0 8 -6 13 -12 11 -7 -3 -26 1 -43 9
l-30 14 28 -4 c23 -4 27 -1 27 19 0 12 6 24 12 26 9 3 8 9 -4 21 -18 19 -48
23 -48 7 0 -5 9 -10 20 -10 11 0 20 -4 20 -10 0 -5 -9 -10 -20 -10 -11 0 -20
-4 -20 -9 0 -5 -7 -11 -15 -15 -8 -3 -14 0 -12 7 1 7 -10 13 -25 15 -25 3 -28
7 -28 43 0 21 5 39 10 39 6 0 10 9 10 20 0 15 -6 19 -29 17 -18 -1 -27 -7 -24
-14z"/>
<path d="M1041 5838 c4 -40 12 -120 18 -178 6 -58 13 -132 16 -165 8 -95 25
-257 31 -294 l5 -33 55 4 c42 4 61 11 83 33 50 47 56 74 43 194 -41 363 -50
421 -66 446 -28 43 -74 65 -136 65 l-56 0 7 -72z"/>
<path d="M8713 5873 c-9 -3 -13 -29 -13 -79 0 -43 -4 -74 -10 -74 -6 0 -10
-33 -10 -80 0 -73 2 -80 20 -80 18 0 20 -7 20 -80 0 -73 2 -80 20 -80 18 0 20
7 20 80 0 66 -3 80 -16 80 -31 0 -44 27 -44 94 l0 66 30 0 30 0 0 80 c0 83 -5
91 -47 73z"/>
<path d="M13004 5655 c55 -57 66 -83 31 -77 -14 3 -12 -4 11 -33 15 -20 33
-34 39 -31 16 6 55 -35 55 -57 0 -9 5 -19 10 -22 6 -4 10 -14 9 -23 -4 -40 1
-54 16 -48 10 3 18 -1 22 -12 13 -35 46 -43 41 -9 -2 14 -9 21 -19 19 -12 -2
-16 5 -16 24 0 14 -7 30 -14 35 -8 5 -10 9 -6 9 5 0 -1 16 -14 36 -12 20 -22
44 -23 53 -2 27 -49 82 -58 68 -5 -8 -8 -7 -8 4 0 15 -98 109 -122 118 -6 2
15 -22 46 -54z"/>
<path d="M1533 3493 c284 -2 750 -2 1035 0 284 1 51 2 -518 2 -569 0 -802 -1
-517 -2z"/>
<path d="M5258 3493 c1031 -2 2714 -2 3740 0 1027 1 184 2 -1873 2 -2057 0
-2897 -1 -1867 -2z"/>
<path d="M11727 3493 c304 -2 802 -2 1105 0 304 1 56 2 -552 2 -608 0 -856 -1
-553 -2z"/>
</g>
</svg>
