<?xml version="1.0" encoding="utf-8"?>
<!-- Generator: Adobe Illustrator 27.5.0, SVG Export Plug-In . SVG Version: 6.00 Build 0)  -->
<svg version="1.1" xmlns="http://www.w3.org/2000/svg" xmlns:xlink="http://www.w3.org/1999/xlink" x="0px" y="0px"
	 viewBox="0 0 3710 3710" style="enable-background:new 0 0 3710 3710;" xml:space="preserve">
<g id="Background">
	<g>
		<g>
			<rect style="fill:#FFFFFF;" width="3710" height="3710"/>
		</g>
	</g>
</g>
<g id="Illustration">
	<g>
		<path style="fill:#F4F7FA;" d="M1646.494,455.249c-372.919,6.587-949.897,148.377-1115.973,512.753
			c-58.004,127.263-54.076,314.354-46.224,688.535c2.309,109.981,6.136,270.282,33.017,469.179
			c55.84,413.171,93.853,694.443,237.722,858.224c360.491,410.383,1662.671,398.525,2218.739-340.299
			c303.338-403.033,350.004-976.362,72.637-1450.188C2741.038,671.777,2145.745,446.43,1646.494,455.249z"/>
		<g>
			
				<linearGradient id="SVGID_1_" gradientUnits="userSpaceOnUse" x1="1069.2399" y1="1783.1151" x2="624.3409" y2="1831.6493" gradientTransform="matrix(-1 0 0 1 3475.8816 0)">
				<stop  offset="0" style="stop-color:#444B8C"/>
				<stop  offset="0.9964" style="stop-color:#26264F"/>
			</linearGradient>
			<path style="fill:url(#SVGID_1_);" d="M1875.41,662.21l-271.04,2252.833c-4.063,33.778,19.218,64.058,51.83,67.294
				l1128.917,123.938c69.157,4.302,107.022-31.031,111.289-66.949l284.561-2395.137c4.243-35.718-29.685-68.065-99.136-68.065
				l-1139.188,23.993C1909.665,600.669,1879.453,628.609,1875.41,662.21z"/>
			
				<linearGradient id="SVGID_00000106106636781080569060000006220247594896078728_" gradientUnits="userSpaceOnUse" x1="1461.2378" y1="661.6587" x2="361.1317" y2="4406.8823" gradientTransform="matrix(-1 0 0 1 3475.8816 0)">
				<stop  offset="0" style="stop-color:#444B8C"/>
				<stop  offset="0.9964" style="stop-color:#26264F"/>
			</linearGradient>
			<path style="fill:url(#SVGID_00000106106636781080569060000006220247594896078728_);" d="M1824.601,658.333l-272.529,2264.102
				c-4.087,33.948,19.274,64.384,52.006,67.643l1170.371,116.523c36.693,3.653,70.32-22.891,74.611-58.995L3135.22,640.091
				c4.267-35.902-22.684-64.76-59.779-64.135l-1183.343,19.966C1858.997,596.481,1828.666,624.564,1824.601,658.333z"/>
			
				<linearGradient id="SVGID_00000050623437764594779860000012277578632575995524_" gradientUnits="userSpaceOnUse" x1="1593.7781" y1="1883.1259" x2="3077.8367" y2="1883.1259">
				<stop  offset="0" style="stop-color:#AA80F9"/>
				<stop  offset="0.9964" style="stop-color:#6165D7"/>
			</linearGradient>
			<path style="fill:url(#SVGID_00000050623437764594779860000012277578632575995524_);" d="M1846.809,783.218L1594.21,2882.489
				c-3.816,31.716,18.06,60.099,48.699,63.077l1100.694,106.996c34.111,3.316,65.369-21.461,69.365-55.067L3077.421,773.51
				c3.976-33.431-21.045-60.482-55.501-60.114l-1111.99,11.842C1878.974,725.567,1850.607,751.656,1846.809,783.218z"/>
			
				<linearGradient id="SVGID_00000031891268858098443190000008458998922173100170_" gradientUnits="userSpaceOnUse" x1="1049.0022" y1="569.4108" x2="-243.9221" y2="4071.0801" gradientTransform="matrix(-1 0 0 1 3475.8816 0)">
				<stop  offset="0" style="stop-color:#FFC444"/>
				<stop  offset="0.9964" style="stop-color:#F36F56"/>
			</linearGradient>
			<path style="fill:url(#SVGID_00000031891268858098443190000008458998922173100170_);" d="M2437.059,656.777
				c-1.443,12.053,7.207,21.701,19.333,21.548c12.139-0.152,23.16-10.068,24.604-22.145c1.445-12.077-7.237-21.724-19.377-21.546
				C2449.49,634.812,2438.501,644.725,2437.059,656.777z"/>
			<g>
				<path style="fill:#FFFFFF;" d="M2037.109,2192.382c225.336-416.615,561.954-541.318,663.302-970.686
					c54.783-232.09,17.458-454.231-45.406-638.645l420.437-7.094c37.094-0.625,64.045,28.233,59.777,64.135l-286.158,2407.515
					c-4.291,36.104-37.917,62.648-74.612,58.994l-920.025-91.598C1847.62,2641.699,1936.663,2378.09,2037.109,2192.382z"/>
			</g>
		</g>
		<g>
			
				<linearGradient id="SVGID_00000118369827847777066430000017492145116657646516_" gradientUnits="userSpaceOnUse" x1="1490.0533" y1="1817.2872" x2="2918.9153" y2="1817.2872">
				<stop  offset="0" style="stop-color:#311944"/>
				<stop  offset="1" style="stop-color:#893976"/>
			</linearGradient>
			<path style="fill:url(#SVGID_00000118369827847777066430000017492145116657646516_);" d="M2867.166,918.311l5.502,29.688h-0.002
				l-113.235,0.268l-982.611,2.33c-25.275,0.06-48.527,20.954-51.99,46.672l-234.565,1567.683
				c-3.491,25.947,36.898,65.555,62.027,67.494l435.934,33.501v-0.528l652.082,50.029c0.013,0,0.023,0,0.036,0l1.58,0.657
				c27.846,2.149,53.386-18.055,57-45.461c0-0.011,0.004,0.116,0.006,0.105L2918.598,996.98
				C2922.161,969.82,2895.167,918.236,2867.166,918.311z"/>
			<g>
				<path style="fill:#FFFFFF;" d="M2676.697,2638.02c-3.597,27.416-29.134,47.907-56.976,45.769l-1090.747-83.754
					c-25.114-1.928-42.598-24.527-39.106-50.476l213.234-1584.35c3.461-25.713,26.701-46.611,51.964-46.68l1096.901-3.016
					c27.992-0.077,47.847,21.869,44.285,49.022L2676.697,2638.02z"/>
				<path style="opacity:0.4;fill:#FFFFFF;" d="M2896.252,964.534l-219.555,1673.488c-3.595,27.406-30.762,47.782-58.589,45.645
					l-655.114-50.304c-31.123-31.859-56.752-70.105-75.038-115.982c-8.98-22.503-15.557-46.781-19.925-72.309
					c-12.161-70.661-7.45-150.982,10.288-229.833c13.64-60.695,35.019-120.618,62.398-174.682
					c21.89-43.226,47.641-82.749,76.395-115.961c20.704-23.905,43.096-47.134,66.716-69.912c28.48-27.487,58.75-54.326,89.97-80.91
					c72.756-61.988,150.667-122.599,222.802-186.605c166.438-147.651,301.464-312.626,268.977-548.025
					c-1.038-7.412-11.184-64.194-24.137-123.052l208.905-0.575C2878.323,915.44,2899.813,937.392,2896.252,964.534z"/>
			</g>
		</g>
		<g>
			<g>
				
					<linearGradient id="SVGID_00000014620574632771437540000017198352571566775450_" gradientUnits="userSpaceOnUse" x1="2599.6931" y1="2744.7185" x2="3026.707" y2="2744.7185" gradientTransform="matrix(-1 0 0 1 5329.4097 0)">
					<stop  offset="0" style="stop-color:#FF9085"/>
					<stop  offset="1" style="stop-color:#FB6FBB"/>
				</linearGradient>
				<path style="fill:url(#SVGID_00000014620574632771437540000017198352571566775450_);" d="M2499.177,3141.044
					c0.296,0.047,0.591,0.095,0.89,0.142c48.258,7.705,108.739,2.321,147.822-29.797c20.593-16.923,34.542-39.242,38.825-65.675
					c2.54-15.677,3.92-32.221,1.467-47.994c-2.568-16.513-8.953-32.464-17.174-46.945c-4.591-8.087-9.826-15.897-15.383-23.352
					c-15.917-21.355-53.521-51.358-36.084-81.634c10.541-18.301,34.838-29.571,50.886-42.404
					c34.304-27.432,58.941-66.984,59.288-112.149c0.272-35.48-21.973-70.603-47.072-94.458
					c-102.133-97.075-26.889-264.025-171.544-250.914c-144.655,13.111-176.038,157.473-121.86,292.257
					c18.139,45.125,40.214,91.253,52.534,138.413c9.699,37.125-4.009,62.8-34.242,84.739
					c-16.266,11.803-40.042,19.849-54.172,33.755c-31.564,31.064-56.851,74.605-49.315,120.176
					c7.474,45.204,46.007,78.41,86.616,95.584C2425.775,3125.638,2461.617,3135.028,2499.177,3141.044z"/>
				<g style="opacity:0.8;">
					<path style="fill:#FFFFFF;" d="M2516.21,3102.259c0.339,0,0.683-0.059,1.02-0.182c1.542-0.563,2.335-2.271,1.772-3.812
						c-0.611-1.674-60.55-169.023-8.07-303.139c53.337-136.306-6.326-282.227-6.935-283.686c-0.632-1.514-2.372-2.227-3.889-1.598
						c-1.516,0.633-2.231,2.374-1.599,3.889c0.599,1.437,59.328,145.204,6.884,279.229c-53.309,136.235,7.403,305.65,8.023,307.345
						C2513.858,3101.511,2514.997,3102.259,2516.21,3102.259z"/>
				</g>
			</g>
			<g>
				
					<linearGradient id="SVGID_00000113314123825106644620000010936672032068070318_" gradientUnits="userSpaceOnUse" x1="2222.6418" y1="2637.5137" x2="2903.3564" y2="2637.5137" gradientTransform="matrix(-1 0 0 1 5329.4097 0)">
					<stop  offset="0" style="stop-color:#FFC444"/>
					<stop  offset="0.9964" style="stop-color:#F36F56"/>
				</linearGradient>
				<path style="fill:url(#SVGID_00000113314123825106644620000010936672032068070318_);" d="M2468.675,2889.677
					c12.11-19.168,25.967-37.199,40.432-53.508c48.877-55.109,83.186-113.612,105.139-184.196
					c17.293-55.599,16.921-119.168,27.652-176.576c7.775-41.597,21.859-81.856,36.495-121.464
					c31.163-84.331,77.942-182.172,156.457-232.815c36.353-23.447,90.255-25.761,130.349-8.964
					c51.939,21.76,97.864,64.158,101.196,123.111c4.581,81.069-66.229,171.946-7.667,246.494
					c89.671,114.148,47.753,240.966-75.524,303.035c-40.174,20.228-87.253,38.978-120.821,70.044
					c-33.669,31.16-13.6,84.322-9.859,123.79c3.51,37.036,7.38,80.066-16.222,111.73c-39.82,53.424-135.974,76.706-198.478,81.984
					c-60.478,5.108-129.198-1.571-171.558-49.993C2402.436,3049.385,2423.271,2961.542,2468.675,2889.677z"/>
				<g style="opacity:0.8;">
					<path style="fill:#FFFFFF;" d="M2567.099,3122.08c1.201,0,2.333-0.733,2.781-1.922
						c1.963-5.189,197.525-521.282,309.114-729.259c0.776-1.447,0.232-3.249-1.215-4.025c-1.448-0.775-3.249-0.233-4.025,1.215
						c-111.772,208.319-307.472,724.773-309.435,729.966c-0.582,1.536,0.193,3.252,1.729,3.833
						C2566.394,3122.018,2566.749,3122.08,2567.099,3122.08z"/>
				</g>
			</g>
			<g>
				
					<linearGradient id="SVGID_00000091718796682824765820000018223441128342150045_" gradientUnits="userSpaceOnUse" x1="2127.0208" y1="2994.2302" x2="2809.8801" y2="2994.2302" gradientTransform="matrix(-1 0 0 1 5329.4097 0)">
					<stop  offset="0.0036" style="stop-color:#E38DDD"/>
					<stop  offset="1" style="stop-color:#9571F6"/>
				</linearGradient>
				<path style="fill:url(#SVGID_00000091718796682824765820000018223441128342150045_);" d="M2651.625,3195.079
					c-13.014-1.843-25.987-3.98-38.908-6.053c-36.108-5.793-80.836-17.04-92.193-57.332c-3.234-11.475,2.335-31.96,3.675-43.886
					c1.365-12.148,3.096-24.293,5.922-36.197c3.905-16.45,10.163-31.915,18.279-46.719c14.063-25.65,30.137-44.95,60.065-50.76
					c21.822-4.236,45.997-5.222,68.175-4.495c120.907,3.964,135.773-39.642,202.173-132.8
					c66.4-93.158,503.451,57.48,239.833,222.985c0,0-39.641,25.767-184.332,8.92c-26.467-3.082-59.938-5.131-82.374,11.986
					c-39.573,30.191,0.218,94.173-39.74,119.277c-23.299,14.637-60.744,18.943-87.509,19.971
					C2700.234,3200.917,2675.857,3198.509,2651.625,3195.079z"/>
				<g style="opacity:0.8;">
					<path style="fill:#FFFFFF;" d="M2570.926,3145.203c0.92,0,1.828-0.426,2.41-1.227c0.761-1.048,77.3-105.102,185.888-129.664
						c42.475-9.608,79.188-31.107,114.691-51.898c59.867-35.058,116.414-68.174,199.871-51.157c1.613,0.33,3.179-0.711,3.507-2.319
						c0.328-1.61-0.71-3.179-2.319-3.507c-85.686-17.475-145.866,17.771-204.063,51.853
						c-35.113,20.562-71.422,41.825-112.999,51.229c-110.808,25.064-188.616,130.906-189.389,131.973
						c-0.964,1.329-0.668,3.188,0.662,4.152C2569.711,3145.019,2570.321,3145.203,2570.926,3145.203z"/>
				</g>
			</g>
		</g>
		<g>
			
				<linearGradient id="SVGID_00000134226290487171160030000008577942624043891349_" gradientUnits="userSpaceOnUse" x1="705.0864" y1="954.3922" x2="1352.0967" y2="954.3922">
				<stop  offset="0" style="stop-color:#444B8C"/>
				<stop  offset="0.9964" style="stop-color:#26264F"/>
			</linearGradient>
			<path style="fill:url(#SVGID_00000134226290487171160030000008577942624043891349_);" d="M1352.097,933.768
				c0,178.887-144.146,333.539-322.507,345.462c-178.97,11.964-324.503-124.222-324.503-304.215s145.533-334.734,324.503-345.589
				C1207.951,618.607,1352.097,754.881,1352.097,933.768z"/>
			
				<linearGradient id="SVGID_00000033333662307837556730000005296056982787155328_" gradientUnits="userSpaceOnUse" x1="743.3723" y1="965.8516" x2="1390.3826" y2="965.8516">
				<stop  offset="0" style="stop-color:#AA80F9"/>
				<stop  offset="0.9964" style="stop-color:#6165D7"/>
			</linearGradient>
			<path style="fill:url(#SVGID_00000033333662307837556730000005296056982787155328_);" d="M1390.383,945.227
				c0,178.887-144.146,333.539-322.507,345.462c-178.97,11.964-324.503-124.221-324.503-304.215s145.533-334.734,324.503-345.589
				C1246.237,630.067,1390.383,766.34,1390.383,945.227z"/>
			<path style="fill:#FFFFFF;" d="M1056.481,1141.601c-14.028,0.918-27.079-5.608-34.341-17.268L900.188,928.504
				c-11.429-18.351-5.271-43.487,13.748-56.138c19.003-12.644,43.665-8.026,55.08,10.318l84.575,135.936l111.595-227.279
				c10.015-20.397,34.077-29.754,53.729-20.907c19.649,8.844,27.468,32.534,17.466,52.918L1092.169,1117.3
				c-6.604,13.459-19.732,22.721-34.28,24.183C1057.42,1141.53,1056.95,1141.57,1056.481,1141.601z"/>
		</g>
		<g>
			<g>
				<g>
					
						<linearGradient id="SVGID_00000010272216579851626120000003150404263952799146_" gradientUnits="userSpaceOnUse" x1="1135.0709" y1="1161.4199" x2="1005.6252" y2="985.8704" gradientTransform="matrix(-1 0 0 1 3673.1108 0)">
						<stop  offset="0" style="stop-color:#AA80F9"/>
						<stop  offset="0.9964" style="stop-color:#6165D7"/>
					</linearGradient>
					<path style="fill:url(#SVGID_00000010272216579851626120000003150404263952799146_);" d="M2644.293,1235.965
						c8.927,0.146,17.68-6.638,18.74-15.152l26.177-210.174c1.066-8.557-5.348-15.494-14.318-15.494h-176.397
						c-8.747,0-16.663,6.84-17.694,15.276c-1.03,8.435,4.556,15.286,13.298,15.304l159.437,0.335l-24.12,194.262
						C2628.362,1228.818,2635.377,1235.819,2644.293,1235.965z"/>
				</g>
				<g>
					
						<linearGradient id="SVGID_00000136402740056666898210000013121089110030720440_" gradientUnits="userSpaceOnUse" x1="1198.444" y1="-10066.0439" x2="1090.4642" y2="-10212.4824" gradientTransform="matrix(-1 0 0 -1 3673.1108 -8362)">
						<stop  offset="0" style="stop-color:#AA80F9"/>
						<stop  offset="0.9964" style="stop-color:#6165D7"/>
					</linearGradient>
					<path style="fill:url(#SVGID_00000136402740056666898210000013121089110030720440_);" d="M2394.374,1846.31l173.401,10.175
						c8.816,0.517,16.817-5.864,17.862-14.256l25.802-207.163c1.051-8.434-5.934-15.572-14.792-15.948
						c-8.848-0.375-17.507,6.149-18.552,14.565l-23.783,191.553l-156.917-8.923c-8.604-0.487-16.065,5.827-17.076,14.104
						C2379.308,1838.693,2385.775,1845.806,2394.374,1846.31z"/>
				</g>
			</g>
			<g>
				<g>
					
						<linearGradient id="SVGID_00000103986618748698495450000016253820925517435064_" gradientUnits="userSpaceOnUse" x1="3907.041" y1="1140.0565" x2="3804.177" y2="1000.5562" gradientTransform="matrix(1 0 0 1 -1945.8892 0)">
						<stop  offset="0" style="stop-color:#AA80F9"/>
						<stop  offset="0.9964" style="stop-color:#6165D7"/>
					</linearGradient>
					<path style="fill:url(#SVGID_00000103986618748698495450000016253820925517435064_);" d="M1843.798,1222.902
						c7.984,0.13,14.517-6.288,15.445-14.341l21.219-184.119l147.568,0.307c8.202,0.017,15.981-6.601,16.94-14.784
						c0.959-8.185-4.575-14.82-12.781-14.82h-161.479c-8.011,0-15.25,6.546-16.177,14.62l-22.796,198.35
						C1830.812,1216.151,1835.823,1222.772,1843.798,1222.902z"/>
				</g>
				<g>
					
						<linearGradient id="SVGID_00000042710873790900956750000009162745345220236418_" gradientUnits="userSpaceOnUse" x1="3848.762" y1="-10018.9766" x2="3729.9446" y2="-10180.1133" gradientTransform="matrix(1 0 0 -1 -1945.8892 -8362)">
						<stop  offset="0" style="stop-color:#AA80F9"/>
						<stop  offset="0.9964" style="stop-color:#6165D7"/>
					</linearGradient>
					<path style="fill:url(#SVGID_00000042710873790900956750000009162745345220236418_);" d="M1776.916,1810.079l158.872,9.322
						c8.073,0.474,15.386-5.653,16.327-13.687c0.941-8.035-5.54-14.912-13.618-15.369l-145.359-8.179l20.938-181.684
						c0.92-7.981-4.071-14.731-11.998-15.068c-7.918-0.336-14.375,5.844-15.291,13.808L1764.3,1794.89
						C1763.389,1802.817,1769.033,1809.617,1776.916,1810.079z"/>
				</g>
			</g>
		</g>
		<g>
			<path style="fill:#F4F7FA;" d="M2431.769,1992.879c-1.073,8.163-8.698,14.25-17.028,13.946l-577.139-21.063
				c-7.618-0.278-12.977-6.551-11.93-14.344l11.347-84.105c1.046-7.788,7.999-13.061,15.625-12.849l577.644,16.043
				c8.338,0.232,14.246,6.121,13.174,14.278L2431.769,1992.879z"/>
			<path style="fill:#F4F7FA;" d="M2409.417,2163.766c-1.075,8.177-8.706,15.156-17.031,14.745l-576.702-28.49
				c-7.612-0.376-12.91-7.661-11.861-15.467l11.437-85.728c1.048-7.799,8.066-14.483,15.683-14.176l577.052,23.274
				c8.329,0.336,14.219,7.87,13.144,16.04L2409.417,2163.766z"/>
			<path style="fill:#AABBCC;" d="M2443.508,1904.442c-1.365-0.441-2.841-0.683-4.404-0.727l-577.656-16.032
				c-7.621-0.22-14.579,5.065-15.615,12.838l-11.363,84.105c-0.023,0.22-0.044,0.419-0.067,0.639
				c-5.857-1.652-9.623-7.202-8.742-13.852l11.363-84.105c1.036-7.774,7.994-13.059,15.615-12.838l577.656,16.032
				C2438.488,1890.743,2444.368,1896.447,2443.508,1904.442z"/>
			<path style="fill:#AABBCC;" d="M2421.265,2072.078c-1.387-0.551-2.885-0.881-4.47-0.946l-577.04-23.279
				c-7.62-0.307-14.645,6.388-15.681,14.184l-11.452,85.734c-0.066,0.551-0.11,1.08-0.11,1.63c-5.858-1.895-9.58-8.193-8.699-14.844
				l11.452-85.734c1.036-7.796,8.061-14.491,15.68-14.184l577.04,23.279C2415.694,2058.248,2421.288,2064.679,2421.265,2072.078z"/>
			
				<linearGradient id="SVGID_00000063612731725802166450000003524314751555658127_" gradientUnits="userSpaceOnUse" x1="1790.8087" y1="1940.4642" x2="2645.2327" y2="3126.2773">
				<stop  offset="0" style="stop-color:#AA80F9"/>
				<stop  offset="0.9964" style="stop-color:#6165D7"/>
			</linearGradient>
			<path style="fill:url(#SVGID_00000063612731725802166450000003524314751555658127_);" d="M2256.043,2302.273
				c1.705-12.901-7.417-24.788-20.382-25.532l-298.539-17.144c-12.362-0.71-23.783,9.701-25.463,22.265l-12.321,92.86
				c-1.682,12.578,6.896,24.618,19.251,25.463l298.385,20.414c12.959,0.886,24.894-10.056,26.6-22.972L2256.043,2302.273z"/>
		</g>
		<polygon style="fill:#FFFFFF;" points="1005.843,1608.414 1364.65,1739.607 1273.729,1865.967 1023.913,1684.854 		"/>
		<g>
			<g>
				
					<linearGradient id="SVGID_00000083807230951603770700000011331447847489122450_" gradientUnits="userSpaceOnUse" x1="2085.5261" y1="1705.1532" x2="2071.9944" y2="1741.6891" gradientTransform="matrix(-1 0 0 1 3366.6824 0)">
					<stop  offset="0" style="stop-color:#444B8C"/>
					<stop  offset="0.9964" style="stop-color:#26264F"/>
				</linearGradient>
				<path style="fill:url(#SVGID_00000083807230951603770700000011331447847489122450_);" d="M1269.045,1861.465l27.33-101.902
					c1.092-4.069,4.181-7.302,8.196-8.577l47.755-15.163c0.053-0.018,0.065-0.024,0.182-0.058l0.373-0.118
					c0.137-0.043,0.277-0.044,0.414-0.071c0.099-0.021,0.208-0.035,0.317-0.054c0.103-0.011,0.202-0.04,0.305-0.043
					c2.45-0.384,7.057-0.366,10.732,4.129c-2.731,1.973-5.197,1.871-7.207,1.006l-34.155,109.932l-49.559,15.422
					c-1.29,0.402-2.698,0.069-3.671-0.867C1269.082,1864.163,1268.694,1862.77,1269.045,1861.465z"/>
				
					<linearGradient id="SVGID_00000053535193361040822010000002517197817165770663_" gradientUnits="userSpaceOnUse" x1="2001.5308" y1="1802.1682" x2="2089.6138" y2="1802.1682" gradientTransform="matrix(-1 0 0 1 3366.6824 0)">
					<stop  offset="0" style="stop-color:#444B8C"/>
					<stop  offset="0.9964" style="stop-color:#26264F"/>
				</linearGradient>
				<path style="fill:url(#SVGID_00000053535193361040822010000002517197817165770663_);" d="M1277.199,1861.44l26.91-98.671
					c1.096-4.018,4.143-7.214,8.103-8.501l48.944-15.907c1.084-0.352,2.274-0.071,3.086,0.73c0.811,0.801,1.108,1.987,0.771,3.076
					l-32.312,104.199c-0.811,2.617-2.858,4.666-5.475,5.48l-45.347,14.111c-1.294,0.403-2.704,0.068-3.679-0.873
					C1277.227,1864.144,1276.843,1862.747,1277.199,1861.44z"/>
			</g>
			
				<linearGradient id="SVGID_00000114784173729321796410000014905013889115330456_" gradientUnits="userSpaceOnUse" x1="1950.4165" y1="1902.6508" x2="2342.7695" y2="1902.6508" gradientTransform="matrix(-1 0 0 1 3366.6824 0)">
				<stop  offset="0" style="stop-color:#FFC444"/>
				<stop  offset="0.9964" style="stop-color:#F36F56"/>
			</linearGradient>
			<path style="fill:url(#SVGID_00000114784173729321796410000014905013889115330456_);" d="M1410.955,1823.921
				c20.254,17.834-16.798,151.486-121.971,191.327c-82.917,31.411-181.88-3.42-229.352-72.372
				c-27.37-39.754-52.161-110.741-21.764-145.262c1.381-1.569,18.556-20.478,43.049-19.133
				c56.704,3.114,60.365,109.724,121.173,122.768c14.291,3.065,19.426-1.678,138.812-53.736
				C1398.496,1822.4,1406.116,1819.66,1410.955,1823.921z"/>
			
				<linearGradient id="SVGID_00000150072445953681109440000003745855424065878463_" gradientUnits="userSpaceOnUse" x1="2041.0216" y1="1852.4481" x2="2111.594" y2="1852.4481" gradientTransform="matrix(-1 0 0 1 3366.6824 0)">
				<stop  offset="0" style="stop-color:#311944"/>
				<stop  offset="1" style="stop-color:#A03976"/>
			</linearGradient>
			<path style="fill:url(#SVGID_00000150072445953681109440000003745855424065878463_);" d="M1256.137,1877.102
				c0,0-5.074-19.79,7.104-28.924c12.179-9.134,17.253-32.984,19.283-24.357c2.03,8.626,0,18.775,0,18.775
				s43.64-38.058,43.133-24.865c-0.507,13.193-31.969,57.341-52.267,65.968C1253.092,1892.325,1256.451,1893.646,1256.137,1877.102z
				"/>
			
				<linearGradient id="SVGID_00000009588196562018105800000010210657494150904195_" gradientUnits="userSpaceOnUse" x1="1915.5745" y1="1804.9487" x2="1968.2676" y2="1804.9487" gradientTransform="matrix(-1 0 0 1 3366.6824 0)">
				<stop  offset="0" style="stop-color:#311944"/>
				<stop  offset="1" style="stop-color:#A03976"/>
			</linearGradient>
			<path style="fill:url(#SVGID_00000009588196562018105800000010210657494150904195_);" d="M1405.494,1825.343
				c0,0,0.677-28.078,15.223-34.506c14.547-6.428,31.123-38.904,30.108-22.328c-1.015,16.577-15.9,24.357-15.9,24.357
				s24.019,8.649,13.532,22.085c-10.487,13.436-22.327,16.142-34.506,22.231c0,0-3.298,10.234-11.671,8.711
				S1401.096,1829.91,1405.494,1825.343z"/>
			<g>
				
					<linearGradient id="SVGID_00000065794160343096123810000000862443783560553150_" gradientUnits="userSpaceOnUse" x1="2401.7769" y1="1824.197" x2="2711.4868" y2="2071.7256" gradientTransform="matrix(-1 0 0 1 3366.6824 0)">
					<stop  offset="0" style="stop-color:#311944"/>
					<stop  offset="1" style="stop-color:#893976"/>
				</linearGradient>
				<path style="fill:url(#SVGID_00000065794160343096123810000000862443783560553150_);" d="M895.211,2173.98
					c-80.976,38.793-157.863,27.225-211.655,19.133c-60.786-9.146-119.329-17.953-142.299-63.377
					c-22.734-44.957-2.419-109.557,33.482-144.691c42.18-41.278,84.261-20.728,113.6-60.985
					c30.058-41.245-5.434-74.723,21.524-120.775c33.93-57.961,106.809-33.379,142.299-92.076
					c29.118-48.156-6.565-87.501,22.72-118.383c40.615-42.831,159.083-19.925,178.056,30.53c7.414,19.717-3.827,34.436-12.13,62.147
					c-26.415,88.158,27.615,138.19,32.575,218.228C1080.084,2011.854,995.036,2126.156,895.211,2173.98z"/>
				
					<linearGradient id="SVGID_00000121278355444271104420000006279743634386365886_" gradientUnits="userSpaceOnUse" x1="2402.0825" y1="3012.843" x2="2542.3894" y2="3178.6599" gradientTransform="matrix(-1 0 0 1 3366.6824 0)">
					<stop  offset="0" style="stop-color:#444B8C"/>
					<stop  offset="0.9964" style="stop-color:#3E4177"/>
				</linearGradient>
				<path style="fill:url(#SVGID_00000121278355444271104420000006279743634386365886_);" d="M840.312,3093.984
					c0,0,81.046,10.267,84.145,28.687c3.597,21.383-90.124,2.598-90.124,2.598S819.984,3120.561,840.312,3093.984z"/>
				
					<linearGradient id="SVGID_00000154386532557266082300000018340539170109211052_" gradientUnits="userSpaceOnUse" x1="2505.6997" y1="3031.0698" x2="2513.6716" y2="3144.2715" gradientTransform="matrix(-1 0 0 1 3366.6824 0)">
					<stop  offset="0" style="stop-color:#311944"/>
					<stop  offset="1" style="stop-color:#893976"/>
				</linearGradient>
				<path style="fill:url(#SVGID_00000154386532557266082300000018340539170109211052_);" d="M845.474,3050.165l-1.976,45.243
					c0,0,9.906,12.559,21.256,3.474l9.047-48.717H845.474z"/>
				
					<linearGradient id="SVGID_00000066477163010699151370000016435629574294313919_" gradientUnits="userSpaceOnUse" x1="2314.3318" y1="3087.0945" x2="2454.6382" y2="3252.9109" gradientTransform="matrix(-1 0 0 1 3366.6824 0)">
					<stop  offset="0" style="stop-color:#444B8C"/>
					<stop  offset="0.9964" style="stop-color:#3E4177"/>
				</linearGradient>
				<path style="fill:url(#SVGID_00000066477163010699151370000016435629574294313919_);" d="M972.352,3115.894
					c0,0,81.046,10.267,84.145,28.686c3.598,21.383-90.124,2.598-90.124,2.598S952.024,3142.47,972.352,3115.894z"/>
				
					<linearGradient id="SVGID_00000129163526503458816760000011234538376297878666_" gradientUnits="userSpaceOnUse" x1="2372.7759" y1="3040.4307" x2="2380.748" y2="3153.6323" gradientTransform="matrix(-1 0 0 1 3366.6824 0)">
					<stop  offset="0" style="stop-color:#311944"/>
					<stop  offset="1" style="stop-color:#893976"/>
				</linearGradient>
				<path style="fill:url(#SVGID_00000129163526503458816760000011234538376297878666_);" d="M977.514,3072.074l-1.976,45.244
					c0,0,9.906,12.558,21.256,3.474l9.047-48.718H977.514z"/>
				
					<linearGradient id="SVGID_00000079477429738640011970000009205744491696973696_" gradientUnits="userSpaceOnUse" x1="2279.8586" y1="2678.0273" x2="2546.0237" y2="2678.0273" gradientTransform="matrix(-1 0 0 1 3366.6824 0)">
					<stop  offset="0" style="stop-color:#444B8C"/>
					<stop  offset="0.9964" style="stop-color:#3E4177"/>
				</linearGradient>
				<path style="fill:url(#SVGID_00000079477429738640011970000009205744491696973696_);" d="M1086.824,2326.286
					c-4.264,65.447-14.749,159.658-43.046,270.656c-10.179,39.929-20.415,73.211-43.455,142.38
					c-27.513,82.594-66.306,195.415-116.87,331.681c-14.664,2.243-29.327,4.486-43.991,6.729
					c-30.354-110.635-21.631-197.63,9.536-266.793c18.46-40.967,29.321-41.342,48.322-87.078
					c20.192-48.606,28.442-97.57,23.338-262.887c-1.446-46.815-4.149-109.035-9.606-182.653
					C969.642,2294.31,1028.234,2310.298,1086.824,2326.286z"/>
				
					<linearGradient id="SVGID_00000121999983872772981150000004471601186989679796_" gradientUnits="userSpaceOnUse" x1="2279.8586" y1="2678.0273" x2="2539.675" y2="2678.0273" gradientTransform="matrix(-1 0 0 1 3366.6824 0)">
					<stop  offset="0" style="stop-color:#444B8C"/>
					<stop  offset="0.9964" style="stop-color:#3E4177"/>
				</linearGradient>
				<path style="opacity:0.3;fill:url(#SVGID_00000121999983872772981150000004471601186989679796_);" d="M1086.824,2326.286
					c-4.264,65.447-14.749,159.658-43.046,270.656c-10.179,39.929-20.415,73.211-43.455,142.38
					c-27.513,82.594-66.306,195.415-116.87,331.681c-14.664,2.243-29.327,4.486-43.991,6.729
					c-25.929-103.268-6.94-157.492,16.646-188.117c14.573-18.92,32.876-31.399,46.238-63.956
					c15.723-38.308,4.588-55.65,12.754-100.502c11.007-60.46,37.142-61.362,46.371-108.641
					c10.885-55.762-19.983-82.605-40.814-155.543c-11.591-40.587-21.779-101.414-9.606-182.653
					C969.642,2294.31,1028.234,2310.298,1086.824,2326.286z"/>
				
					<linearGradient id="SVGID_00000008118538308528218640000004541723764799546280_" gradientUnits="userSpaceOnUse" x1="2237.8669" y1="2691.2432" x2="2548.3777" y2="2691.2432" gradientTransform="matrix(-1 0 0 1 3366.6824 0)">
					<stop  offset="0" style="stop-color:#444B8C"/>
					<stop  offset="0.9964" style="stop-color:#3E4177"/>
				</linearGradient>
				<path style="fill:url(#SVGID_00000008118538308528218640000004541723764799546280_);" d="M985.254,2315.919
					c36.875,46.447,140.491,189.39,143.495,397.439c2.802,194.049-83.549,332.265-118.166,381.969
					c-14.422-1.315-28.844-2.63-43.266-3.945c-3.638-41.084-5.491-102.783,7.175-175.878
					c18.866-108.882,48.737-120.64,44.244-182.731c-5.635-77.88-54.869-90.376-131.537-231.84
					c-41.314-76.231-90.664-167.288-58.594-201.004C834.682,2293.541,864.446,2267.383,985.254,2315.919z"/>
				
					<linearGradient id="SVGID_00000183216853199979929530000008350023287416316350_" gradientUnits="userSpaceOnUse" x1="2209.4758" y1="2082.6082" x2="2737.1912" y2="2082.6082" gradientTransform="matrix(-1 0 0 1 3366.6824 0)">
					<stop  offset="0" style="stop-color:#FFC444"/>
					<stop  offset="0.9964" style="stop-color:#F36F56"/>
				</linearGradient>
				<path style="fill:url(#SVGID_00000183216853199979929530000008350023287416316350_);" d="M1022.756,1746.025
					c51.943,9.452,83.067,45.07,91.644,55.177c10.662,12.564,42.195,53.547,42.798,158.397
					c0.578,100.52-28.12,112.151-36.819,207.515c-12.831,140.655,41.269,206.67,3.548,238.378
					c-32.106,26.988-71.153-20.959-179.339-15.767c-89.292,4.286-106.486,39.049-183.247,30.355
					c-11.731-1.329-114.218-13.994-130.04-67.618c-10.992-37.253,29.456-61.689,84.901-151.865
					c53.079-86.328,79.185-166.678,92.154-206.597c39.121-120.414,22.887-153.334,67.104-197.36
					C880.973,1791.148,942.829,1731.481,1022.756,1746.025z"/>
				
					<linearGradient id="SVGID_00000077302684498390607730000015903045399218685073_" gradientUnits="userSpaceOnUse" x1="2283.4812" y1="1774.0546" x2="2418.606" y2="1701.1111" gradientTransform="matrix(-1 0 0 1 3366.6824 0)">
					<stop  offset="0" style="stop-color:#311944"/>
					<stop  offset="1" style="stop-color:#A03976"/>
				</linearGradient>
				<path style="fill:url(#SVGID_00000077302684498390607730000015903045399218685073_);" d="M970.285,1650.496
					c0,0,10.579,73.482-29.746,112.931c-2.864,2.802-1.529,7.628,2.392,8.453c18.73,3.937,62.295,10.282,104.545-3.911
					c3.676-1.235,4.504-6.099,1.481-8.526c-8.834-7.092-23.703-20.643-31.628-36.92c-11.744-24.124-13.837-65.285-13.837-65.285
					L970.285,1650.496z"/>
				<g style="opacity:0.3;">
					
						<linearGradient id="SVGID_00000059282898465596911310000008634369633456597176_" gradientUnits="userSpaceOnUse" x1="2209.4758" y1="2089.3606" x2="2737.1904" y2="2089.3606" gradientTransform="matrix(-1 0 0 1 3366.6824 0)">
						<stop  offset="0" style="stop-color:#FFC444"/>
						<stop  offset="0.9964" style="stop-color:#F36F56"/>
					</linearGradient>
					<path style="fill:url(#SVGID_00000059282898465596911310000008634369633456597176_);" d="M716.201,2200.595
						c53.079-86.328,79.185-166.678,92.154-206.597c39.121-120.414,22.887-153.334,67.104-197.36
						c2.832-2.82,20.562-19.931,47.947-33.941c-7.255,23.637-11.6,51.446-7.509,81.553
						c13.951,102.643,113.042,138.332,100.446,202.089c-11.514,58.281-99.728,55.86-112.404,118.383
						c-13.047,64.352,72.353,106.609,55.006,151.865c-16.743,43.681-102.595,20.729-187.739,72.943
						c-12.965,7.95-24.673,16.888-35.264,26.494c-34.844-6.95-93.038-24.233-104.643-63.564
						C620.308,2315.208,660.756,2290.771,716.201,2200.595z"/>
				</g>
				
					<linearGradient id="SVGID_00000031181827570739667030000016969817976935008925_" gradientUnits="userSpaceOnUse" x1="2474.3135" y1="1583.5787" x2="2372.6711" y2="1648.1516" gradientTransform="matrix(-1 0 0 1 3366.6824 0)">
					<stop  offset="0" style="stop-color:#311944"/>
					<stop  offset="1" style="stop-color:#A03976"/>
				</linearGradient>
				<path style="fill:url(#SVGID_00000031181827570739667030000016969817976935008925_);" d="M969.044,1676.747
					c0,0,18.213,24.998,46.774,14.58c25.574-9.327,10.31-75.378-9.975-82.913c-6.766-2.513-19.191-1.402-27.497,3.78
					c-5.842,3.644-21.439,23.022-12.498,44.738c-6.461-1.871-12.148-0.173-13.571,3.028c-1.809,4.058,3.664,9.584,4.901,10.837
					C961.473,1675.137,966.655,1676.349,969.044,1676.747z"/>
				
					<linearGradient id="SVGID_00000002375148206956885710000003335094998195307437_" gradientUnits="userSpaceOnUse" x1="2080.5178" y1="1948.3749" x2="2531.8655" y2="1948.3749" gradientTransform="matrix(-1 0 0 1 3366.6824 0)">
					<stop  offset="0" style="stop-color:#FFC444"/>
					<stop  offset="0.9964" style="stop-color:#F36F56"/>
				</linearGradient>
				<path style="fill:url(#SVGID_00000002375148206956885710000003335094998195307437_);" d="M1286.165,1878.447
					c-9.622-3.626-19.246-7.253-28.868-10.879c-5.665,10.304-43.458,76.621-114.198,86.695
					c-66.703,9.5-129.343-35.756-158.442-80.118c-27.598-42.072-21.991-78.712-47.832-86.695
					c-25.998-8.032-58.225,20.854-73.541,40.657c-36.225,46.838-34.952,116.706-12.556,166.813
					c36.411,81.461,134.232,123.161,217.621,114.674c129.186-13.149,189.042-143.225,199.129-166.703
					C1278.404,1917.46,1283.535,1894.672,1286.165,1878.447z"/>
			</g>
		</g>
		<g>
			<g>
				<g>
					
						<linearGradient id="SVGID_00000037650632394206463280000003002991728209210040_" gradientUnits="userSpaceOnUse" x1="4050.1196" y1="1531.0204" x2="3998.0505" y2="1460.4063" gradientTransform="matrix(1 0 0 1 -3176.7432 0)">
						<stop  offset="0" style="stop-color:#AA80F9"/>
						<stop  offset="0.9964" style="stop-color:#6165D7"/>
					</linearGradient>
					<path style="fill:url(#SVGID_00000037650632394206463280000003002991728209210040_);" d="M823.807,1565.932
						c-3.735,0.064-7.036-2.917-7.036-6.657v-92.1c0-3.74,3.03-6.772,6.765-6.772h73.443c3.642,0,6.59,2.989,6.59,6.677
						s-2.675,6.683-6.317,6.691l-66.422,0.147v85.142C830.828,1562.792,827.537,1565.868,823.807,1565.932z"/>
				</g>
				<g>
					
						<linearGradient id="SVGID_00000097481691547083787750000004462927232267085698_" gradientUnits="userSpaceOnUse" x1="4049.1902" y1="-10131.0195" x2="3996.8787" y2="-10201.9629" gradientTransform="matrix(1 0 0 -1 -3176.7432 -8362)">
						<stop  offset="0" style="stop-color:#AA80F9"/>
						<stop  offset="0.9964" style="stop-color:#6165D7"/>
					</linearGradient>
					<path style="fill:url(#SVGID_00000097481691547083787750000004462927232267085698_);" d="M896.978,1836.041l-73.443,4.535
						c-3.735,0.231-6.765-2.614-6.765-6.354v-92.1c0-3.74,3.302-6.905,7.036-7.072c3.73-0.166,7.022,2.726,7.022,6.458v85.142
						l66.422-3.975c3.642-0.217,6.453,2.595,6.453,6.283S900.619,1835.816,896.978,1836.041z"/>
				</g>
			</g>
			<g>
				<g>
					
						<linearGradient id="SVGID_00000083797732796603918050000005415673507762883720_" gradientUnits="userSpaceOnUse" x1="1330.0538" y1="1527.3359" x2="1281.1586" y2="1461.0259" gradientTransform="matrix(-1 0 0 1 2442.2568 0)">
						<stop  offset="0" style="stop-color:#AA80F9"/>
						<stop  offset="0.9964" style="stop-color:#6165D7"/>
					</linearGradient>
					<path style="fill:url(#SVGID_00000083797732796603918050000005415673507762883720_);" d="M1158.648,1560.193
						c-3.339,0.057-5.758-2.762-5.758-6.299v-80.684l-61.476,0.134c-3.417,0.007-6.334-2.886-6.334-6.464
						c0-3.578,2.627-6.478,6.044-6.478h67.232c3.336,0,6.036,2.861,6.036,6.39v86.906
						C1164.392,1557.228,1161.983,1560.136,1158.648,1560.193z"/>
				</g>
				<g>
					
						<linearGradient id="SVGID_00000070102158332821295080000013106203937367592360_" gradientUnits="userSpaceOnUse" x1="1330.98" y1="-10115.8574" x2="1282.2826" y2="-10181.8994" gradientTransform="matrix(-1 0 0 -1 2442.2568 -8362)">
						<stop  offset="0" style="stop-color:#AA80F9"/>
						<stop  offset="0.9964" style="stop-color:#6165D7"/>
					</linearGradient>
					<path style="fill:url(#SVGID_00000070102158332821295080000013106203937367592360_);" d="M1158.356,1819.9l-67.232,4.152
						c-3.417,0.211-6.189-2.518-6.189-6.095c0-3.577,3.062-6.639,6.479-6.842l61.476-3.64v-80.685c0-3.536,2.418-6.527,5.758-6.676
						c3.335-0.149,5.745,2.589,5.745,6.118v86.906C1164.392,1816.666,1161.692,1819.694,1158.356,1819.9z"/>
				</g>
			</g>
		</g>
		<g>
			<path style="fill:#AABBCC;" d="M2177.933,1765.807c-190.88,0-331.22-159.78-313.184-352.557
				c17.672-188.893,181.451-339.781,365.413-339.781s324.975,150.888,314.148,339.781
				C2533.26,1606.027,2368.813,1765.807,2177.933,1765.807z"/>
			<g>
				<defs>
					<path id="SVGID_00000121974764161890396320000011035511733331784868_" d="M2530.985,1413.251
						c-10.761,185.44-168.439,338.481-351.99,338.481c-183.551,0-318.139-153.042-300.921-338.481
						c16.884-181.843,173.945-326.688,351.101-326.688S2541.537,1231.408,2530.985,1413.251z"/>
				</defs>
				<use xlink:href="#SVGID_00000121974764161890396320000011035511733331784868_"  style="overflow:visible;fill:#EAEDF3;"/>
				<clipPath id="SVGID_00000065042865227150094240000015788306244378424729_">
					<use xlink:href="#SVGID_00000121974764161890396320000011035511733331784868_"  style="overflow:visible;"/>
				</clipPath>
				<g style="clip-path:url(#SVGID_00000065042865227150094240000015788306244378424729_);">
					
						<linearGradient id="SVGID_00000044178763788531115970000009977901675660889517_" gradientUnits="userSpaceOnUse" x1="2169.793" y1="1114.2781" x2="2138.8516" y2="593.431">
						<stop  offset="0" style="stop-color:#311944"/>
						<stop  offset="1" style="stop-color:#893976"/>
					</linearGradient>
					<path style="fill:url(#SVGID_00000044178763788531115970000009977901675660889517_);" d="M2186.958,1176.731
						c-62.167-1.802-124.03,30.568-154.2,75.771c-36.556,54.772,3.684,82.247-24.858,172.199
						c-26.535,83.626-73.027,97.994-70.472,153.385c2.816,61.043,61.682,99.965,85.002,115.384
						c105.321,69.638,279.05,66.718,372.857-23.048c7.792-7.456,71.937-68.838,59.144-124.954
						c-11.384-49.935-73.383-50.284-82.804-101.899c-8.074-44.241,35.017-58.485,35.143-122.141
						c0.024-12.402,0.141-70.893-44.598-97.804c-29.731-17.883-64.101-12.764-76.747-10.265
						C2271.268,1202.163,2236.615,1178.171,2186.958,1176.731z"/>
					
						<linearGradient id="SVGID_00000006666655318140919690000014346717630128904114_" gradientUnits="userSpaceOnUse" x1="1909.6913" y1="43.1514" x2="2421.8411" y2="2988.0151">
						<stop  offset="0" style="stop-color:#FFC444"/>
						<stop  offset="0.9964" style="stop-color:#F36F56"/>
					</linearGradient>
					<path style="fill:url(#SVGID_00000006666655318140919690000014346717630128904114_);" d="M1826.856,1640.349
						c0,0,336.844-178.779,721.115-0.584c0,0-59.813,155.391-365.958,166.091C1865.12,1816.931,1826.856,1640.349,1826.856,1640.349
						z"/>
					
						<linearGradient id="SVGID_00000133524536160577643870000007317132408761930667_" gradientUnits="userSpaceOnUse" x1="2194.1843" y1="1667.3514" x2="2168.4163" y2="1272.9">
						<stop  offset="0" style="stop-color:#893976"/>
						<stop  offset="1" style="stop-color:#311944"/>
					</linearGradient>
					<path style="fill:url(#SVGID_00000133524536160577643870000007317132408761930667_);" d="M2155.406,1408.26l-18.589,84.448
						c-6.382,28.992-29.35,53.297-59.407,62.727l-100.727,31.601c0,0,181.11,86.745,424.512,0.042l-105.351-35.907
						c-29.792-10.986-48.619-38.545-47.675-69.761l2.18-72.036L2155.406,1408.26z"/>
					
						<linearGradient id="SVGID_00000164509599320771363870000014602851452390473093_" gradientUnits="userSpaceOnUse" x1="2258.7744" y1="1309.2012" x2="1820.6881" y2="1620.9553">
						<stop  offset="0" style="stop-color:#893976"/>
						<stop  offset="1" style="stop-color:#311944"/>
					</linearGradient>
					<path style="fill:url(#SVGID_00000164509599320771363870000014602851452390473093_);" d="M2305.265,1336.073
						c-4.971,70.65-55.634,146.801-111.802,146.367c-56.511-0.437-96.297-78.136-90.497-149.557
						c5.755-70.879,54.269-108.436,109.948-107.229C2268.26,1226.855,2310.198,1265.953,2305.265,1336.073z"/>
					
						<linearGradient id="SVGID_00000046322097611909130940000017511049002698740397_" gradientUnits="userSpaceOnUse" x1="2170.9219" y1="1114.2104" x2="2139.9807" y2="593.3641">
						<stop  offset="0" style="stop-color:#311944"/>
						<stop  offset="1" style="stop-color:#893976"/>
					</linearGradient>
					<path style="fill:url(#SVGID_00000046322097611909130940000017511049002698740397_);" d="M2253.881,1271.726
						c-30.243,0.894-76.434,6.88-110.573,37.689c-57.592,51.973-39.006,136.475-63.298,141.261
						c-21.654,4.266-49.531-56.202-43.442-121.746c5.066-54.541,30.196-118.035,82.789-132.885
						c30.839-8.707,38.492,6.739,134.865,17.841c56.168,6.47,32.273,29.86,44.379,39.017c53.87,40.751,37.697,172.254,6.833,173.611
						C2290.796,1427.159,2273.127,1392.346,2253.881,1271.726z"/>
				</g>
			</g>
		</g>
	</g>
</g>
</svg>
